USFL
nRows=132
nColumns=2
inDegrees=yes
endheader
time	med_gas_r	
3.07762	 53.443381	
3.14919	 53.340210	
3.22077	 53.213196	
3.29234	 53.167206	
3.36391	 53.133873	
3.43548	 53.097247	
3.50706	 53.054155	
3.57863	 53.120445	
3.6502	 53.214085	
3.72177	 53.207930	
3.79335	 53.240331	
3.86492	 53.264652	
3.93649	 53.312879	
4.00806	 53.271038	
4.07964	 53.242203	
4.15121	 53.209648	
4.22278	 53.201881	
4.29435	 53.164916	
4.36593	 53.132928	
4.4375	 53.172319	
4.50907	 53.178419	
4.58065	 53.113064	
4.65222	 53.132832	
4.72379	 53.219772	
4.79536	 53.256697	
4.86694	 53.219137	
4.93851	 53.175748	
5.01008	 53.085015	
5.08165	 53.082055	
5.15323	 52.900645	
5.2248	 52.342256	
5.29637	 52.881893	
5.36794	 52.830816	
5.43952	 52.099871	
5.51109	 52.174895	
5.58266	 51.967992	
5.65423	 51.842191	
5.72581	 51.854687	
5.79738	 51.622316	
5.86895	 51.254674	
5.94052	 51.339680	
6.0121	 51.319494	
6.08367	 51.119860	
6.15524	 51.523201	
6.22681	 51.715762	
6.29839	 51.297311	
6.36996	 51.415500	
6.44153	 51.365351	
6.5131	 51.098163	
6.58468	 51.238629	
6.65625	 51.353935	
6.72782	 51.345457	
6.7994	 51.278192	
6.87097	 51.119642	
6.94254	 51.014260	
7.01411	 50.865292	
7.08569	 50.401177	
7.15726	 50.583658	
7.22883	 48.731855	
7.3004	 47.670090	
7.37198	 47.597920	
7.44355	 47.665912	
7.51512	 45.536426	
7.58669	 45.219588	
7.65827	 42.474548	
7.72984	 42.349121	
7.80141	 42.322383	
7.87298	 42.291224	
7.94456	 42.210334	
8.01613	 42.149208	
8.0877	 42.204430	
8.15927	 42.153752	
8.23085	 42.030450	
8.30242	 41.768239	
8.37399	 41.436370	
8.44556	 40.769467	
8.51714	 40.460364	
8.58871	 40.186145	
8.66028	 39.986200	
8.73185	 39.926848	
8.80343	 39.830074	
8.875	 39.831823	
8.94657	 39.883449	
9.01815	 39.848202	
9.08972	 39.910550	
9.16129	 40.055024	
9.23286	 40.066121	
9.30444	 39.984856	
9.37601	 39.924817	
9.44758	 39.855123	
9.51915	 39.830685	
9.59073	 39.839753	
9.6623	 39.883482	
9.73387	 39.857957	
9.80544	 39.856346	
9.87702	 39.812109	
9.94859	 39.789252	
10.0202	 39.771055	
10.0917	 39.793915	
10.1633	 39.833293	
10.2349	 39.749854	
10.3065	 39.767398	
10.378	 39.639053	
10.4496	 39.673641	
10.5212	 39.458305	
10.5927	 39.449030	
10.6643	 39.257556	
10.7359	 39.134301	
10.8075	 39.000700	
10.879	 38.895478	
10.9506	 38.756901	
11.0222	 38.766718	
11.0937	 38.821377	
11.1653	 38.875799	
11.2369	 38.854607	
11.3085	 38.994722	
11.38	 39.107374	
11.4516	 39.086907	
11.5232	 39.126950	
11.5948	 39.186986	
11.6663	 39.303564	
11.7379	 40.701873	
11.8095	 42.266020	
11.881	 43.070170	
11.9526	 46.933178	
12.0242	 48.633808	
12.0958	 53.173568	
12.1673	 53.236758	
12.2389	 53.360084	
12.3105	 53.458864	
12.3821	 53.511005	
12.4536	 53.618332	
